# xmcd
#
# Track frame offsets:
#	150
#	20124
#	40403
#	65659
#	84537
#	106785
#	124582
#	144200
#	163967
#	189052
#	214955
#	237021
#	275694
#
# Disc length: 3934 seconds
#
# Revision: 3
# Processed by: cddbd v1.5.2PL0 Copyright (c) Steve Scherf et al.
# Submitted via: Jack! The Knife 18 Bulletproof
#
DISCID=b60f5c0d
DTITLE=Helloween - Rabbit Don't Come Easy
DYEAR=2003
DGENRE=Heavy Metal
TTITLE0=Just A Little Sign
TTITLE1=Open Your Life
TTITLE2=The Tune
TTITLE3=Never Be A Star
TTITLE4=Liar
TTITLE5=Sun 4 The World
TTITLE6=Don't Stop Being Crazy
TTITLE7=Do You Feel Good
TTITLE8=Hell Was Made In Heaven
TTITLE9=Back Against The Wall
TTITLE10=Listen To The Flies
TTITLE11=Nothing To Say
TTITLE12=Far Away
EXTD=Charlie Bauerfeind
EXTT0=Andy Deris
EXTT1=Deris, Gerstner
EXTT2=Michael Weikath
EXTT3=Andy Deris
EXTT4=Deris, Gerstner, Grosskopf
EXTT5=Sascha Gerstner
EXTT6=Andy Deris
EXTT7=Michael Weikath
EXTT8=Markus Grosskopf
EXTT9=Deris, Weikath
EXTT10=Deris, Gerstner
EXTT11=Michael Weikath
EXTT12=Markus Grosskopf
PLAYORDER=
